<svg width="22" height="22" viewBox="0 0 22 22" fill="none" xmlns="http://www.w3.org/2000/svg">
<path d="M20.4286 12.5714H12.5714V20.4286C12.5714 20.8453 12.4059 21.245 12.1112 21.5397C11.8165 21.8344 11.4168 22 11 22C10.5832 22 10.1835 21.8344 9.88883 21.5397C9.59413 21.245 9.42857 20.8453 9.42857 20.4286V12.5714H1.57143C1.15466 12.5714 0.754961 12.4059 0.460261 12.1112C0.165561 11.8165 0 11.4168 0 11C0 10.5832 0.165561 10.1835 0.460261 9.88883C0.754961 9.59413 1.15466 9.42857 1.57143 9.42857H9.42857V1.57143C9.42857 1.15466 9.59413 0.75496 9.88883 0.46026C10.1835 0.16556 10.5832 0 11 0C11.4168 0 11.8165 0.16556 12.1112 0.46026C12.4059 0.75496 12.5714 1.15466 12.5714 1.57143V9.42857H20.4286C20.8453 9.42857 21.245 9.59413 21.5397 9.88883C21.8344 10.1835 22 10.5832 22 11C22 11.4168 21.8344 11.8165 21.5397 12.1112C21.245 12.4059 20.8453 12.5714 20.4286 12.5714Z" fill="#EAEAEA"/>
</svg>
